# xmcd CD database file
#
# Track frame offsets:
#	150
#	34575
#	77250
#	112050
#	147450
#	181850
#	213225
#	247175
#	277525
#	303337
#
# Disc length: 4669 seconds
#
# Revision: 1
# Processed by: cddbd v1.5.2PL0 Copyright (c) Steve Scherf et al.
# Submitted via: CDex 1.51
#
DISCID=7f123b0a
DTITLE=Carl Saunders - Blues On The Side
DYEAR=2005
DGENRE=Jazz
TTITLE0=There Will Never Be Another You
TTITLE1=Happy Go Lucky
TTITLE2=Can You Dig Being Dug?
TTITLE3=Yesterdays
TTITLE4=Calming Notion
TTITLE5=Midi Evil Blues
TTITLE6=One Note Samba
TTITLE7=What Can I Say?
TTITLE8=The Girl from Cancun
TTITLE9=Blues On The Side
EXTD=YEAR: 2005
EXTT0=
EXTT1=
EXTT2=
EXTT3=
EXTT4=
EXTT5=
EXTT6=
EXTT7=
EXTT8=
EXTT9=
PLAYORDER=
